Coordinates
version=1
nRows=9
nColumns=26
inDegrees=yes

Units are S.I. units (second, meters, Newtons, ...)
If the header above contains a line with 'inDegrees', this indicates whether rotational values are in degrees (yes) or radians (no).

endheader
time	pelvis_tilt	pelvis_list	pelvis_rotation	pelvis_tx	pelvis_ty	pelvis_tz	hip_flexion_r	hip_adduction_r	hip_rotation_r	knee_angle_r	knee_angle_r_beta	hip_flexion_l	hip_adduction_l	hip_rotation_l	knee_angle_l	knee_angle_l_beta	lumbar_extension	lumbar_bending	lumbar_rotation	ankle_angle_r	subtalar_angle_r	mtp_angle_r	ankle_angle_l	subtalar_angle_l	mtp_angle_l
      3.48000000	      1.28616740	      9.23246954	     -0.63434771	      0.85276643	      0.90673466	     -0.34911557	     21.05321546	    -16.13503016	     -0.82223138	     62.06682080	      1.08327038	      7.40573342	     15.47138294	      1.98290347	     12.20277710	      0.21297864	     -9.49494376	     -8.74796636	     -3.69149621	      4.89604039	    -17.42868953	      0.00000000	      6.96390358	    -11.54978389	      0.00000000
      3.48666667	      1.35790128	      9.06934522	     -0.40897731	      0.86107039	      0.90781016	     -0.34993377	     21.59954993	    -15.89728634	     -1.18485671	     60.77042804	      1.06064406	      6.29746363	     15.34727857	      2.17354177	     11.51537367	      0.20098119	     -9.70086376	     -8.52122436	     -4.07195445	      5.33940890	    -17.40097571	      0.00000000	      7.33379639	    -10.94966023	      0.00000000
      3.49333333	      1.15421258	      8.92030775	     -0.14998327	      0.86915711	      0.90829302	     -0.35069710	     22.48908842	    -15.65804310	     -1.51946008	     59.43763088	      1.03738236	      5.60110167	     15.21925586	      2.22390416	     10.97535267	      0.19155604	     -9.59582171	     -8.32798056	     -4.45813266	      5.59540629	    -17.35801354	      0.00000000	      7.52804508	    -10.70846657	      0.00000000
      3.50000000	      1.17952413	      8.71111583	      0.18548623	      0.87742559	      0.90904975	     -0.35151960	     22.94702239	    -15.43211474	     -2.09997777	     57.84078014	      1.00951206	      4.62096447	     15.02701892	      2.42633430	     10.44936232	      0.18237578	     -9.75118538	     -8.05309741	     -4.93582852	      5.84488817	    -17.19068090	      0.00000000	      7.85843591	    -10.12251720	      0.00000000
      3.50666667	      0.98340956	      8.68459020	      0.44192086	      0.88547354	      0.90921453	     -0.35198287	     23.74912402	    -15.29321720	     -2.38044830	     56.24937550	      0.98173680	      4.03046363	     14.99296284	      2.28161152	     10.10763465	      0.17641150	     -9.67780703	     -8.09615307	     -5.30916478	      5.90764647	    -17.02594336	      0.00000000	      8.06525562	     -9.96030748	      0.00000000
      3.51333333	      1.38518536	      8.24350267	      0.86517403	      0.89384379	      0.91039607	     -0.35275516	     23.50770581	    -14.85483485	     -3.26600634	     54.19603073	      0.94589918	      2.57621798	     14.50658602	      2.64221614	      9.51667053	      0.16609723	    -10.30343935	     -7.52325960	     -5.97244263	      6.01267928	    -16.59654378	      0.00000000	      9.03713288	     -8.41096392	      0.00000000
      3.52000000	      1.09881031	      8.03658270	      1.24667002	      0.90192877	      0.91031255	     -0.35327481	     24.23079467	    -14.56238189	     -3.74618656	     52.29110587	      0.91265197	      2.04953399	     14.27138102	      2.76410280	      9.13159226	      0.15937635	    -10.11858497	     -7.33793595	     -6.43550211	      5.90539992	    -16.18863736	      0.00000000	      9.34499790	     -8.01536557	      0.00000000
      3.52666667	      1.03421952	      7.81094614	      1.65430882	      0.91004943	      0.91039841	     -0.35375204	     24.60009856	    -14.30200442	     -4.38997577	     50.20550645	      0.87625139	      1.35488611	     13.99541798	      2.88471799	      8.92640056	      0.15579508	    -10.18727893	     -7.12886936	     -6.95806201	      5.77559312	    -15.62986696	      0.00000000	      9.82324877	     -7.43079786	      0.00000000
      3.53333333	      1.21762212	      7.56313629	      2.01089731	      0.91824663	      0.91073896	     -0.35409363	     24.60352436	    -13.98180873	     -5.01420690	     47.93244952	      0.83657906	      0.36117859	     13.65461544	      2.86064499	      8.68586385	      0.15159692	    -10.56726778	     -6.88003684	     -7.47684923	      5.84963871	    -14.75028682	      0.00000000	     11.06377488	     -5.74622152	      0.00000000
